<svg width="57" height="57" viewBox="0 0 57 57" fill="none" xmlns="http://www.w3.org/2000/svg">
<path d="M36.7667 8.31567L40.7785 12.3402L31.0917 22.0524V8.31567H36.7667ZM16.1489 12.3402L25.8357 22.0524V8.31567H20.1607L16.1489 12.3402ZM21.4176 7.05879H27.0926V23.2966L28.4637 24.6677L29.8348 23.2966V7.05879H35.5098L28.4637 0L21.4176 7.05879ZM24.7439 28.4002L23.3727 27.0291H7.0461V21.3414L0 28.4002L7.0461 35.459V29.7714H23.3727L24.7439 28.4002ZM34.8115 25.7722H48.5102V20.0846L44.4983 16.06L34.8115 25.7722ZM56.8132 28.4002L49.7671 21.3414V27.0291H33.5547L32.1835 28.4002L33.5547 29.7714H49.7671V35.459L56.8132 28.4002ZM8.30297 18.3072L12.4291 14.2826L23.8933 25.7722H25.8357V23.8298L14.3715 12.3402L18.3833 8.31567H8.30297V18.3072ZM48.5102 8.31567H38.5441L42.5559 12.3402L31.0917 23.8298V25.7722H33.0341L44.4983 14.2826L48.5102 18.3072V8.31567ZM25.8357 48.4848V34.7608L16.1489 44.4729L20.1607 48.4975H25.8357V48.4848ZM8.30297 25.7722H22.1159L12.4291 16.06L8.30297 20.0846V25.7722ZM48.5102 38.4933L44.4983 42.5178L33.0341 31.0282H31.0917V32.9707L42.5559 44.4603L38.5441 48.4848H48.5102V38.4933ZM48.5102 31.0282H34.8115L44.4983 40.7404L48.5102 36.7159V31.0282ZM40.7785 44.4603L31.0917 34.7481V48.4721H36.7667L40.7785 44.4603ZM12.4291 40.7404L22.1159 31.0282H8.30297V36.7159L12.4291 40.7404ZM35.5098 49.7416H29.8348V33.5039L28.4637 32.1328L27.0926 33.5039V49.7416H21.4176L28.4637 56.8004L35.5098 49.7416ZM14.3715 44.4603L25.8357 32.9707V31.0282H23.8933L12.4291 42.5178L8.30297 38.4933V48.4848H18.3833L14.3715 44.4603Z" fill="#121212"/>
</svg>
