<svg width="18" height="20" viewBox="0 0 18 20" fill="none" xmlns="http://www.w3.org/2000/svg">
<path d="M8.99934 0.314245C7.7422 0.268386 6.76868 1.13698 5.7145 1.68276C4.28071 2.53268 2.80427 3.31674 1.39903 4.21073C0.479892 4.9578 0.0575873 6.15995 0.154111 7.32085C0.159462 9.37913 0.143447 11.4379 0.162197 13.4958C0.28122 14.7419 1.14528 15.7995 2.25716 16.3208C4.04208 17.3452 5.81653 18.3887 7.60798 19.4011C8.74681 19.9204 10.095 19.702 11.1024 18.9994C12.8821 17.9657 14.6728 16.9502 16.4455 15.9049C17.4652 15.1789 17.9493 13.9019 17.8446 12.6784C17.8393 10.6201 17.8553 8.56135 17.8365 6.50338C17.7174 5.25737 16.8535 4.1996 15.7415 3.67854C13.9565 2.65432 12.1818 1.61155 10.3904 0.598971C9.95681 0.397565 9.47517 0.315573 8.99938 0.314206L8.99934 0.314245ZM7.87845 5.49745H10.1206V14.5021H7.87845V5.49745ZM10.7 7.45737H12.9411V14.5021H10.7V7.45737ZM5.05731 11.1324H7.29911V14.5021H5.05731V11.1323V11.1324Z" fill="#09090A"/>
</svg>
