<svg width="26" height="27" viewBox="0 0 26 27" fill="none" xmlns="http://www.w3.org/2000/svg">
<path d="M25.7779 18.5407C25.7779 20.2504 24.4727 22.0988 23.0159 23.9331C23.0159 23.9331 20.6684 20.908 20.5269 18.6722C20.3854 16.4363 22.8844 14.0689 22.8844 14.0689V13.1482C21.8524 11.1682 20.3854 9.86016 18.6856 8.67645H17.6334C16.2185 9.84696 15.539 11.0439 13.4247 11.0439C11.3104 11.0439 10.1267 9.72862 10.2582 8.28189C10.3897 6.83515 11.3104 5.91449 13.2832 5.91449C15.2561 5.91449 16.2532 7.03091 17.6334 8.28189H18.6856C19.9909 6.57209 22.0952 5.78297 23.5519 5.91448C25.0086 6.046 25.9193 6.83516 25.9193 8.15036C25.9193 9.46557 25.1891 11.5482 23.5519 13.1482V14.0689C24.8396 15.6585 25.7779 16.8309 25.7779 18.5407Z" fill="#EAB737"/>
<path d="M18.427 0.794643C20.1368 0.794643 21.9851 2.09976 23.8194 3.55662C23.8194 3.55662 20.7944 5.90413 18.5585 6.0456C16.3226 6.18707 13.9552 3.68814 13.9552 3.68814H13.0346C11.0545 4.7201 9.74651 6.18707 8.56281 7.88692V8.9391C9.73331 10.354 10.9302 11.0335 10.9302 13.1478C10.9302 15.2621 9.61497 16.4458 8.16824 16.3143C6.72151 16.1828 5.80084 15.2621 5.80084 13.2893C5.80084 11.3164 6.91726 10.3193 8.16824 8.9391V7.88692C6.45845 6.58164 5.66932 4.47728 5.80083 3.02058C5.93235 1.56389 6.72151 0.653176 8.03672 0.653176C9.35192 0.653176 11.4345 1.38336 13.0346 3.02058H13.9552C15.5449 1.73286 16.7172 0.794643 18.427 0.794643Z" fill="#EAB737"/>
<path d="M0.141445 8.41345C0.141445 6.70366 1.44656 4.85532 2.90342 3.02103C2.90342 3.02103 5.25093 6.04606 5.3924 8.28194C5.53387 10.5178 3.03494 12.8852 3.03494 12.8852L3.03494 13.8059C4.06691 15.7859 5.53387 17.0939 7.23372 18.2776H8.2859C9.70084 17.1071 10.3803 15.9102 12.4946 15.9102C14.6089 15.9102 15.7926 17.2255 15.6611 18.6722C15.5296 20.1189 14.6089 21.0396 12.6361 21.0396C10.6632 21.0396 9.6661 19.9232 8.2859 18.6722H7.23372C5.92844 20.382 3.82408 21.1711 2.36738 21.0396C0.910689 20.9081 -2.19345e-05 20.1189 -2.19345e-05 18.8037C-2.19345e-05 17.4885 0.730162 15.4059 2.36738 13.8059L2.36738 12.8852C1.07967 11.2956 0.141445 10.1232 0.141445 8.41345Z" fill="#EAB737"/>
<path d="M7.75976 25.9153C6.04997 25.9153 4.20163 24.6102 2.36734 23.1533C2.36734 23.1533 5.39237 20.8058 7.62825 20.6644C9.86413 20.5229 12.2315 23.0218 12.2315 23.0218H13.1522C15.1322 21.9899 16.4403 20.5229 17.624 18.823V17.7709C16.4535 16.3559 15.2565 15.6764 15.2565 13.5621C15.2565 11.4478 16.5718 10.2641 18.0185 10.3957C19.4653 10.5272 20.3859 11.4478 20.3859 13.4207C20.3859 15.3935 19.2695 16.3907 18.0185 17.7709V18.823C19.7283 20.1283 20.5174 22.2327 20.3859 23.6894C20.2544 25.1461 19.4653 26.0568 18.1501 26.0568C16.8348 26.0568 14.7522 25.3266 13.1522 23.6894H12.2315C10.6419 24.9771 9.46956 25.9153 7.75976 25.9153Z" fill="#EAB737"/>
</svg>
