<svg width="265" height="49" viewBox="0 0 265 49" fill="none" xmlns="http://www.w3.org/2000/svg">
<g clip-path="url(#clip0_89_789)">
<path d="M11.7789 33.4593V35.2234C11.7788 35.5488 11.8429 35.8711 11.9674 36.1718C12.0919 36.4725 12.2745 36.7457 12.5047 36.9758C12.7348 37.206 13.0081 37.3885 13.3088 37.5129C13.6095 37.6374 13.9318 37.7014 14.2573 37.7013H36.3479C36.6733 37.7014 36.9956 37.6374 37.2963 37.513C37.597 37.3885 37.8702 37.2061 38.1003 36.976C38.3305 36.746 38.5131 36.4728 38.6376 36.1722C38.7622 35.8715 38.8263 35.5493 38.8263 35.2239V33.4593H49.9648V44.2594C49.9648 46.7801 47.9026 48.8424 45.3819 48.8424H5.22124C2.70057 48.8424 0.638306 46.7796 0.638306 44.2594V33.4588H11.7789V33.4593ZM11.7773 19.1326V30.2722H0.638306V19.1326H11.7773ZM49.9648 19.1326V30.2722H38.8263V19.1326H49.9648ZM45.3819 0.563965C47.9026 0.563965 49.9648 2.62623 49.9648 5.14896V15.947H38.8263V14.183C38.8264 13.8575 38.7623 13.5353 38.6378 13.2346C38.5133 12.934 38.3308 12.6608 38.1007 12.4307C37.8706 12.2006 37.5974 12.018 37.2967 11.8935C36.9961 11.769 36.6738 11.705 36.3484 11.7051H14.2553C13.9299 11.705 13.6077 11.769 13.307 11.8935C13.0064 12.018 12.7332 12.2004 12.5031 12.4305C12.273 12.6605 12.0905 12.9337 11.966 13.2343C11.8414 13.5349 11.7773 13.8571 11.7773 14.1825V15.947H0.638306V5.14638C0.638306 2.62675 2.70057 0.563965 5.22124 0.563965H45.3819Z" fill="#121212"/>
<path d="M99.823 11.6947C104.828 11.6947 109.551 15.897 109.551 24.3506V25.0119C109.551 33.4176 104.876 37.6652 99.823 37.6652C96.1868 37.6652 94.0153 35.6333 92.5047 33.415V44.3233H87.1698V12.1655H92.5047V16.1808C94.0622 13.7735 96.2336 11.6947 99.8236 11.6947H99.823ZM232.428 11.6947C236.018 11.6947 238.378 13.0174 240.456 15.0956L237.482 19.0152C236.159 17.6467 234.695 16.513 232.428 16.513C228.932 16.513 226.383 19.865 226.383 24.588V24.8234C226.383 29.6855 228.933 32.9447 232.568 32.9447C234.74 32.9447 236.204 31.8595 237.668 30.3952L240.548 33.9362C238.565 36.1545 236.062 37.7121 232.24 37.7141C225.724 37.7141 221.001 32.4724 221.001 25.0119V24.5396C221.001 17.0791 225.864 11.6952 232.428 11.6952V11.6947ZM123.133 11.6947C129.932 11.6947 133.521 17.3629 133.521 24.8698V25.0243C133.522 25.5869 133.507 26.1494 133.475 26.7111H117.797C118.268 30.9129 120.865 33.1801 124.124 33.1801C126.484 33.1801 128.232 32.1418 129.885 30.5358L132.672 33.8409C130.404 36.2498 127.618 37.7121 123.887 37.7121C117.465 37.7121 112.46 32.8026 112.46 24.963V24.586C112.46 17.0791 116.994 11.6952 123.132 11.6952L123.133 11.6947ZM72.6767 11.6932C79.2874 11.6932 84.15 17.077 84.15 24.4907V24.9166C84.15 32.2834 79.239 37.7121 72.5835 37.7105C65.9728 37.7105 61.1081 32.3746 61.1081 24.9609V24.5375C61.1081 17.1702 66.0176 11.6932 72.6767 11.6932ZM169.943 11.7885C172.73 11.7885 175.704 12.7799 178.065 14.4791L175.797 18.3986C173.91 17.1254 171.831 16.1808 169.848 16.1808C167.865 16.1808 166.685 17.2676 166.685 18.6366V18.7319C166.685 20.3842 168.667 21.234 171.596 22.5561C175.467 24.3042 178.395 26.0966 178.395 30.0167V30.063C178.395 34.9746 174.666 37.6652 169.85 37.6672C166.875 37.6672 163.43 36.5805 160.548 34.1737L163.05 30.3489C165.318 32.1881 167.727 33.2754 169.945 33.2754C172.164 33.2754 173.439 32.0949 173.439 30.5353V30.489C173.439 28.6945 171.502 27.8916 168.528 26.6158C164.796 25.0098 161.68 23.3107 161.68 19.2021V19.1068C161.68 14.6212 165.269 11.7879 169.943 11.7879V11.7885ZM207.997 11.8837C211.256 11.8837 213.758 12.7799 215.364 14.4327C217.017 16.0855 217.866 18.5413 217.866 21.6599V37.1949H212.625V34.1252C211.16 36.2478 208.942 37.6652 205.683 37.6652C201.528 37.6652 198.035 34.8813 198.035 30.0167V29.7813C198.035 24.399 201.624 21.7552 206.912 21.7552C209.273 21.7552 210.974 22.1791 212.674 22.7467V21.7063C212.674 18.3543 210.69 16.6068 207.289 16.6068C204.88 16.6068 202.897 17.3629 201.245 18.1174L199.734 13.8667C202.141 12.6872 204.645 11.8837 207.997 11.8837ZM189.345 5.41108V12.1634H194.964V16.7443H189.345V30.0615C189.345 31.9981 190.337 32.8016 192.036 32.8016C193.077 32.8016 194.021 32.5662 194.918 32.0934V36.4857C193.691 37.147 192.273 37.5725 190.477 37.5689C186.794 37.5689 184.008 36.0114 184.008 31.1462V16.7453H182.146L181.271 12.1639H184.01V5.41108H189.345ZM149.19 11.6947C154.006 11.6947 156.886 15.0941 156.886 20.431V37.1949H151.551V21.9417C151.551 18.4476 149.898 16.511 147.065 16.511C144.279 16.511 142.342 18.5897 142.342 22.0375V37.1949H137.007V12.1675H142.343V15.8502C143.76 13.6318 145.79 11.6952 149.19 11.6952V11.6947ZM256.88 24.2053L264.344 37.1934H258.157L253.134 28.2305L256.88 24.2053ZM249.233 3.10107V23.1685L257.78 12.1655H264.109L249.233 29.9698V37.1929H243.898V3.10159H249.233V3.10107ZM208.093 25.3889C205.024 25.3889 203.23 26.9464 203.23 29.5907V29.686C203.23 32.1881 204.976 33.6055 207.289 33.6519C210.359 33.6988 212.72 31.6205 212.72 28.7878V26.2851C211.493 25.7659 209.887 25.3889 208.093 25.3889ZM72.5794 16.4157C68.8504 16.4157 66.441 19.8614 66.441 24.5375V24.8208C66.441 29.4975 69.0389 33.038 72.6746 33.0359C76.4036 33.0359 78.813 29.5418 78.813 24.8677V24.5844C78.813 19.9098 76.2151 16.4157 72.5794 16.4157ZM98.3593 16.4177C95.1489 16.4177 92.4094 19.5328 92.4094 24.4438V24.9166C92.4094 29.8282 95.1495 32.9447 98.3593 32.9463C101.618 32.9463 104.166 29.925 104.166 24.9187V24.4927C104.166 19.488 101.571 16.4177 98.3593 16.4177ZM123.133 16.1808C120.205 16.1808 118.128 18.7782 117.751 23.0264H128.328C128.044 19.0605 126.25 16.1808 123.133 16.1808H123.133Z" fill="#121212"/>
</g>
<defs>
<clipPath id="clip0_89_789">
<rect width="263.707" height="48.4149" fill="white" transform="translate(0.638306 0.563965)"/>
</clipPath>
</defs>
</svg>
