<svg width="199" height="212" viewBox="0 0 199 212" fill="none" xmlns="http://www.w3.org/2000/svg">
<path d="M191.193 173.009C186.201 161.109 178.957 150.299 169.864 141.182C160.799 132.039 150.06 124.75 138.241 119.716C138.135 119.663 138.03 119.636 137.924 119.583C154.41 107.598 165.127 88.0759 165.127 66.0503C165.127 29.5628 135.754 0 99.5 0C63.2463 0 33.8728 29.5628 33.8728 66.0503C33.8728 88.0759 44.5901 107.598 61.0763 119.61C60.9705 119.663 60.8646 119.689 60.7588 119.743C48.9035 124.776 38.2656 131.994 29.136 141.209C20.0516 150.333 12.8087 161.141 7.80713 173.036C2.89361 184.681 0.243639 197.167 0.000661724 209.816C-0.00640128 210.1 0.0431374 210.383 0.14636 210.648C0.249583 210.913 0.404401 211.154 0.601691 211.357C0.798981 211.561 1.03475 211.723 1.29511 211.833C1.55547 211.943 1.83515 212 2.11767 212H17.9952C19.1596 212 20.0858 211.068 20.1122 209.923C20.6415 189.362 28.8449 170.106 43.3464 155.511C58.3507 140.41 78.277 132.101 99.5 132.101C120.723 132.101 140.649 140.41 155.654 155.511C170.155 170.106 178.359 189.362 178.888 209.923C178.914 211.094 179.84 212 181.005 212H196.882C197.165 212 197.445 211.943 197.705 211.833C197.965 211.723 198.201 211.561 198.398 211.357C198.596 211.154 198.75 210.913 198.854 210.648C198.957 210.383 199.006 210.1 198.999 209.816C198.735 197.085 196.115 184.701 191.193 173.009ZM99.5 111.859C87.3537 111.859 75.9218 107.092 67.3215 98.4362C58.7211 89.7804 53.9843 78.2749 53.9843 66.0503C53.9843 53.8256 58.7211 42.3201 67.3215 33.6643C75.9218 25.0085 87.3537 20.2412 99.5 20.2412C111.646 20.2412 123.078 25.0085 131.679 33.6643C140.279 42.3201 145.016 53.8256 145.016 66.0503C145.016 78.2749 140.279 89.7804 131.679 98.4362C123.078 107.092 111.646 111.859 99.5 111.859Z" fill="#09090A" fill-opacity="0.4"/>
</svg>
