<svg width="24" height="18" viewBox="0 0 24 18" fill="none" xmlns="http://www.w3.org/2000/svg">
<path fill-rule="evenodd" clip-rule="evenodd" d="M3.74941 0.441205L0.835047 3.30419V3.30289C0.583117 3.55913 0.58672 3.96644 0.843145 4.21835C1.09957 4.47025 1.51419 4.47379 1.77504 4.2263L3.55476 2.47821V17.0969C3.55476 17.4576 3.85239 17.75 4.21954 17.75H14.6458C15.013 17.75 15.3106 17.4576 15.3106 17.0969C15.3106 16.7363 15.013 16.4439 14.6458 16.4439H4.88431V2.47952L6.66404 4.22761C6.92488 4.4751 7.3395 4.47156 7.59593 4.21966C7.85235 3.96775 7.85596 3.56044 7.60403 3.30419L4.6894 0.441205C4.4298 0.186265 4.009 0.186265 3.74941 0.441205ZM9.35294 0.25H19.7676C20.1343 0.25 20.4316 0.542395 20.4316 0.903083V15.5225L22.2094 13.7722C22.3761 13.6024 22.623 13.5344 22.8552 13.5941C23.0873 13.6539 23.2686 13.8322 23.3294 14.0605C23.3902 14.2889 23.3209 14.5317 23.1483 14.6957L20.2372 17.5588C19.9779 17.8137 19.5576 17.8137 19.2983 17.5588L16.3869 14.6957C16.1352 14.4394 16.1388 14.0321 16.395 13.7802C16.6511 13.5283 17.0653 13.5247 17.3258 13.7722L19.1036 15.5225V1.55617H9.35294C8.9862 1.55617 8.6889 1.26377 8.6889 0.903083C8.6889 0.542395 8.9862 0.25 9.35294 0.25ZM12.6557 12.5473C12.1611 12.5473 11.6828 12.4836 11.221 12.3562C10.7591 12.2288 10.3881 12.0632 10.108 11.8594L10.5997 10.8233C10.8679 11.0101 11.1867 11.1602 11.5562 11.2734C11.9257 11.3866 12.2952 11.4433 12.6647 11.4433C13.0759 11.4433 13.3798 11.3852 13.5765 11.2692C13.7731 11.1531 13.8715 10.9988 13.8715 10.8063C13.8715 10.6648 13.8134 10.5473 13.6972 10.4539C13.5809 10.3604 13.432 10.2854 13.2502 10.2288C13.0684 10.1722 12.8226 10.1099 12.5127 10.042C12.0359 9.9344 11.6456 9.82683 11.3416 9.71925C11.0377 9.61168 10.777 9.439 10.5594 9.2012C10.3419 8.96341 10.2332 8.64635 10.2332 8.25003C10.2332 7.90466 10.3315 7.59185 10.5282 7.3116C10.7248 7.03134 11.0213 6.80912 11.4176 6.64493C11.8139 6.48074 12.2981 6.39864 12.8703 6.39864C13.2696 6.39864 13.6599 6.44393 14.0413 6.53452C14.4227 6.62511 14.7565 6.75533 15.0425 6.92518L14.5956 7.96977C14.0175 7.65838 13.4394 7.50268 12.8613 7.50268C12.4561 7.50268 12.1566 7.56496 11.9629 7.68952C11.7692 7.81408 11.6724 7.97827 11.6724 8.18209C11.6724 8.38591 11.7841 8.53736 12.0076 8.63644C12.2311 8.73553 12.5723 8.83319 13.0312 8.92944C13.5079 9.03701 13.8983 9.14458 14.2022 9.25216C14.5062 9.35973 14.7669 9.52958 14.9844 9.76171C15.2019 9.99385 15.3107 10.3081 15.3107 10.7044C15.3107 11.0441 15.2109 11.3541 15.0112 11.6343C14.8116 11.9146 14.5121 12.1368 14.1128 12.301C13.7135 12.4652 13.2278 12.5473 12.6557 12.5473Z" fill="white"/>
</svg>
