<svg id="Layer_1" data-name="Layer 1" xmlns="http://www.w3.org/2000/svg" viewBox="0 0 111.3 113.8"><path d="M99.7,7.1a10.1,10.1,0,1,0,10.2,10.1A10.1,10.1,0,0,0,99.7,7.1ZM69.6,17.2a46.1,46.1,0,0,0-14.4,3.5l9.1,15.5a24.8,24.8,0,0,1,7.3-1.3h1.5a29.2,29.2,0,0,1,28.4,22.8h18.1a45.3,45.3,0,0,0-11.5-24.8,18,18,0,0,1-8.4,2A17.8,17.8,0,0,1,81.9,18.1a42.4,42.4,0,0,0-8.8-.9H69.6ZM44.3,27A47.3,47.3,0,0,0,28.5,49.4a17.7,17.7,0,0,1,0,29.2A47.3,47.3,0,0,0,44.3,101l9-15.6a29.1,29.1,0,0,1,0-42.8ZM18.5,53.9A10.1,10.1,0,1,0,28.7,64,10.2,10.2,0,0,0,18.5,53.9Zm83,16.4A29.2,29.2,0,0,1,73.1,93.1a28.4,28.4,0,0,1-8.8-1.4l-9.1,15.5a46.5,46.5,0,0,0,17.9,3.6,42.4,42.4,0,0,0,8.8-.9A17.9,17.9,0,0,1,98.6,93.1h1.1a18,18,0,0,1,8.4,2,45.3,45.3,0,0,0,11.5-24.8Zm-1.8,30.4a10.1,10.1,0,1,0,10.2,10.1A10.1,10.1,0,0,0,99.7,100.7Z" transform="translate(-8.3 -7.1)"/></svg>