<svg width="225" height="36" viewBox="0 0 225 36" fill="none" xmlns="http://www.w3.org/2000/svg">
<path d="M5.61557 0.418528C4.97939 0.441993 4.35458 0.594226 3.77891 0.866033C3.19643 1.11355 2.67083 1.47777 2.23452 1.93623C1.79821 2.39469 1.46045 2.93767 1.24206 3.53169C1.02367 4.12571 0.929288 4.75817 0.96473 5.39006C1.00017 6.02196 1.16469 6.6399 1.44813 7.20577L12.0579 30.2805C13.7267 33.8233 15.6007 35.7998 18.7798 35.7998C21.9684 35.7998 23.833 33.7487 25.4925 30.2805L34.8436 9.90015C34.9465 9.63258 35.1323 9.40497 35.3739 9.25063C35.6155 9.09629 35.9001 9.02333 36.1861 9.04242C36.5769 9.04975 36.9492 9.21014 37.2229 9.4891C37.4966 9.76806 37.6499 10.1433 37.6499 10.5341V30.2805C37.5902 30.9693 37.6743 31.6629 37.8969 32.3175C38.1195 32.972 38.4757 33.5731 38.943 34.0826C39.4102 34.5921 39.9783 34.999 40.6111 35.2773C41.244 35.5556 41.9278 35.6993 42.6191 35.6993C43.3104 35.6993 43.9942 35.5556 44.6271 35.2773C45.2599 34.999 45.828 34.5921 46.2953 34.0826C46.7625 33.5731 47.1187 32.972 47.3414 32.3175C47.564 31.6629 47.6481 30.9693 47.5883 30.2805V14.1515C47.5593 13.4567 47.6769 12.7636 47.9336 12.1173C48.1903 11.471 48.5803 10.886 49.0781 10.4005C49.576 9.91499 50.1705 9.53979 50.823 9.29937C51.4755 9.05895 52.1714 8.95869 52.8652 9.00513C53.5432 8.97649 54.2197 9.09049 54.8509 9.33978C55.482 9.58907 56.0538 9.96809 56.5292 10.4523C57.0047 10.9365 57.3731 11.5152 57.6108 12.1508C57.8485 12.7864 57.9501 13.4648 57.9091 14.1422V30.2712C57.8272 30.9674 57.8941 31.673 58.1054 32.3414C58.3167 33.0098 58.6675 33.6257 59.1346 34.1483C59.6017 34.671 60.1745 35.0885 60.8151 35.3732C61.4556 35.6579 62.1493 35.8033 62.8503 35.7998C63.5508 35.798 64.2432 35.6498 64.883 35.3646C65.5229 35.0795 66.096 34.6637 66.5657 34.144C67.0353 33.6243 67.3912 33.0121 67.6103 32.3468C67.8295 31.6814 67.9071 30.9776 67.8382 30.2805V14.1515C67.8094 13.4584 67.9266 12.7669 68.1821 12.122C68.4377 11.4771 68.826 10.8931 69.3218 10.4079C69.8175 9.92262 70.4098 9.547 71.06 9.30536C71.7103 9.06371 72.4041 8.96142 73.0965 9.00513C73.776 8.97379 74.4545 9.08581 75.0879 9.3339C75.7213 9.58198 76.2954 9.96059 76.7729 10.4451C77.2503 10.9296 77.6205 11.5092 77.8593 12.1461C78.0981 12.7831 78.2002 13.4632 78.1589 14.1422V30.2712C78.0772 30.9658 78.1437 31.6699 78.3539 32.3369C78.564 33.004 78.9132 33.619 79.3783 34.1413C79.8434 34.6637 80.4139 35.0816 81.0522 35.3674C81.6905 35.6533 82.3821 35.8007 83.0815 35.7998C83.7838 35.8038 84.4789 35.6595 85.1215 35.3763C85.7641 35.0931 86.3397 34.6774 86.8105 34.1563C87.2814 33.6353 87.6369 33.0208 87.8538 32.3529C88.0708 31.685 88.1442 30.9788 88.0694 30.2805V11.9233C88.0656 10.3764 87.7499 8.84612 87.1411 7.42402C86.5324 6.00193 85.6431 4.7172 84.5264 3.64668C83.4098 2.57615 82.0887 1.74182 80.6422 1.19356C79.1957 0.645301 77.6535 0.394388 76.1078 0.455818C72.1102 0.524864 68.2972 2.15041 65.4794 4.98686C64.2845 3.44878 62.7259 2.23194 60.9438 1.44588C59.1617 0.659825 57.2122 0.329213 55.2706 0.483789C51.5237 0.82462 47.9988 2.40986 45.2576 4.98686C44.1773 3.63447 42.8173 2.5318 41.2707 1.75452C39.7242 0.977233 38.0278 0.543746 36.298 0.483789C33.9512 0.388989 31.6358 1.04971 29.6924 2.36879C27.749 3.68788 26.2802 5.59571 25.5018 7.81177L18.7053 23.8103L10.0068 3.27141L10.1093 3.23412C9.7298 2.36771 9.0981 1.6357 8.29655 1.13348C7.495 0.631264 6.56076 0.382128 5.61557 0.418528ZM177.441 0.977911C177.11 0.982772 176.784 1.05271 176.48 1.18373C176.177 1.31474 175.902 1.50427 175.672 1.74149C175.442 1.97871 175.26 2.25896 175.138 2.56626C175.016 2.87356 174.956 3.20187 174.961 3.53245H174.98V32.8258C174.931 33.1819 174.959 33.5443 175.062 33.8887C175.165 34.233 175.34 34.5514 175.577 34.8222C175.813 35.0931 176.105 35.3102 176.432 35.459C176.759 35.6078 177.114 35.6848 177.474 35.6848C177.833 35.6848 178.188 35.6078 178.516 35.459C178.843 35.3102 179.134 35.0931 179.371 34.8222C179.607 34.5514 179.782 34.233 179.885 33.8887C179.988 33.5443 180.016 33.1819 179.968 32.8258V21.4329C179.968 11.7648 185.291 6.88879 191.808 6.11497C192.433 6.04926 193.009 5.74903 193.421 5.2749C193.833 4.80076 194.049 4.18805 194.027 3.56042C194.041 3.22965 193.987 2.89948 193.868 2.5906C193.749 2.28172 193.567 2.00078 193.334 1.76535C193.101 1.52993 192.822 1.3451 192.515 1.22244C192.207 1.09978 191.878 1.04193 191.547 1.0525C189.05 1.22793 186.65 2.08591 184.608 3.53276C182.566 4.97962 180.961 6.95972 179.968 9.25686V3.53245C179.978 3.1966 179.92 2.86218 179.797 2.5495C179.674 2.23682 179.488 1.95239 179.252 1.71349C179.016 1.47459 178.733 1.2862 178.422 1.15975C178.111 1.03331 177.777 0.971441 177.441 0.977911ZM114.65 1.0525C114.093 1.08785 113.564 1.30496 113.143 1.67047C112.722 2.03597 112.432 2.52965 112.319 3.07562L103.816 27.5675L95.4067 3.14088C95.279 2.55876 94.956 2.03785 94.4912 1.66472C94.0265 1.2916 93.4481 1.08872 92.8522 1.08979C92.2007 1.0797 91.5715 1.32636 91.1005 1.77646C90.6294 2.22656 90.3544 2.84395 90.3349 3.49516C90.3725 3.95607 90.4793 4.40868 90.6519 4.8377L100.814 33.1521L101.001 33.0868C101.156 33.7135 101.511 34.2726 102.012 34.6796C102.514 35.0866 103.134 35.3195 103.779 35.343C104.425 35.3401 105.05 35.1138 105.548 34.7026C106.045 34.2913 106.386 33.7204 106.511 33.0868L114.929 9.00513L123.283 33.0868C123.408 33.7204 123.748 34.2913 124.246 34.7026C124.744 35.1138 125.369 35.3401 126.015 35.343H126.182C126.819 35.3096 127.429 35.0723 127.921 34.6661C128.413 34.2598 128.761 33.7061 128.914 33.0868L139.142 4.76311C139.308 4.33282 139.412 3.8806 139.449 3.42057C139.43 2.78419 139.159 2.1815 138.696 1.74459C138.232 1.30769 137.615 1.07222 136.979 1.08979C136.414 1.08674 135.866 1.27917 135.428 1.63439C134.989 1.9896 134.687 2.48567 134.573 3.03832L126.015 27.5582L117.586 3.07562C117.444 2.49645 117.111 1.982 116.641 1.61503C116.171 1.24806 115.591 1.04992 114.995 1.0525H114.762C114.724 1.05168 114.687 1.05168 114.65 1.0525ZM209.447 1.12708C207.27 1.19683 205.128 1.70198 203.149 2.61272C201.17 3.52345 199.394 4.82132 197.924 6.42978C196.455 8.03823 195.322 9.92468 194.594 11.9778C193.865 14.031 193.555 16.2093 193.682 18.3842C193.564 20.6131 193.901 22.8426 194.673 24.937C195.444 27.0315 196.633 28.9472 198.168 30.5676C199.703 32.188 201.551 33.4792 203.601 34.3627C205.651 35.2461 207.859 35.7034 210.091 35.7066L210.016 35.8278C212.318 35.8943 214.609 35.482 216.743 34.617C218.878 33.752 220.81 32.4531 222.416 30.8026C222.649 30.6083 222.838 30.3664 222.97 30.093C223.102 29.8196 223.173 29.5211 223.18 29.2177C223.175 28.8107 223.053 28.4136 222.829 28.0738C222.605 27.7339 222.288 27.4656 221.916 27.3006C221.544 27.1357 221.132 27.081 220.73 27.1432C220.328 27.2054 219.952 27.3818 219.647 27.6514C218.397 28.8885 216.915 29.867 215.287 30.5309C213.658 31.1948 211.915 31.5311 210.156 31.5205C207.14 31.5287 204.241 30.3554 202.08 28.2519C199.919 26.1485 198.668 23.2823 198.595 20.2675H222.416C223.025 20.265 223.608 20.0213 224.038 19.5897C224.468 19.1581 224.709 18.5738 224.709 17.9647C224.709 9.15431 219.181 1.12708 209.447 1.12708ZM155.895 1.14573C155.404 1.13964 154.912 1.15831 154.422 1.20167C150.969 1.04859 147.528 1.703 144.372 3.11291C143.956 3.26715 143.601 3.5523 143.36 3.92551C143.12 4.29872 143.007 4.73985 143.039 5.18265C143.065 5.75016 143.305 6.28656 143.712 6.68304C144.119 7.07953 144.662 7.3064 145.23 7.31765C145.536 7.29855 145.836 7.22268 146.115 7.09389C148.552 5.98475 151.216 5.46724 153.891 5.58355C160.333 5.58355 163.867 8.69747 163.867 14.7109V15.8763C160.526 14.9073 157.061 14.4361 153.583 14.4778C145.267 14.4778 139.412 18.2071 139.412 25.2927L139.384 25.2554C139.384 32.1172 145.64 35.6693 151.877 35.6693C154.208 35.736 156.522 35.2466 158.626 34.2414C160.731 33.2362 162.565 31.7442 163.978 29.889V33.0868C163.975 33.3971 164.033 33.705 164.151 33.992C164.27 34.279 164.444 34.5392 164.666 34.7569C164.887 34.9746 165.15 35.1454 165.439 35.2589C165.727 35.3724 166.036 35.4264 166.346 35.4176C166.667 35.4228 166.985 35.3629 167.282 35.2415C167.578 35.1201 167.847 34.9398 168.072 34.7114C168.297 34.483 168.473 34.2113 168.59 33.9128C168.707 33.6144 168.762 33.2953 168.752 32.9749V14.4871C168.852 12.7073 168.59 10.9256 167.983 9.24957C167.376 7.57353 166.435 6.03785 165.218 4.73513C162.627 2.48303 159.328 1.21262 155.895 1.14573ZM209.214 5.15468C215.871 5.15468 219.33 10.4222 219.833 16.473H198.595C198.605 13.5921 199.706 10.8219 201.676 8.7201C203.647 6.61831 206.34 5.34102 209.214 5.14536V5.15468ZM154.348 18.0393C157.684 18.0421 161.002 18.5225 164.202 19.4657V22.7008C164.202 28.015 159.177 31.7722 153.014 31.7722C148.493 31.7722 144.586 29.3389 144.586 25.1248C144.586 20.7709 148.082 18.0393 154.348 18.0393Z" fill="#121212"/>
</svg>
